<svg xmlns="http://www.w3.org/2000/svg" id="Livello_1" data-name="Livello 1" viewBox="0 0 250 250">
    <title>calendario</title>
    <path
        d="M209,43.89h-5.21V39.37a14.68,14.68,0,0,0-29.35,0v4.52H139.67V39.37a14.67,14.67,0,1,0-29.34,0v4.52H75.59V39.37a14.68,14.68,0,0,0-29.35,0v4.52H41A17.54,17.54,0,0,0,23.5,61.41V207.78A17.54,17.54,0,0,0,41,225.3H209a17.54,17.54,0,0,0,17.53-17.52V61.41A17.54,17.54,0,0,0,209,43.89Zm8.8,47.28H32.23V61.41A8.8,8.8,0,0,1,41,52.62h5.21V68.4a14.68,14.68,0,0,0,29.35,0V52.62h34.74V68.4a14.67,14.67,0,1,0,29.34,0V52.62h34.74V68.4a14.68,14.68,0,0,0,29.35,0V52.62H209a8.8,8.8,0,0,1,8.8,8.79Zm-34.63-51.8a5.95,5.95,0,0,1,11.89,0v29a5.95,5.95,0,0,1-11.89,0Zm-64.08,0a5.94,5.94,0,0,1,11.88,0v29a5.94,5.94,0,0,1-11.88,0ZM55,39.37a5.95,5.95,0,0,1,11.89,0v29A5.95,5.95,0,0,1,55,68.4Zm162.8,168.41a8.8,8.8,0,0,1-8.8,8.79H41a8.8,8.8,0,0,1-8.8-8.79V99.89H217.77Z"
        fill="#9dbe7a"></path>
    <path d="M49.42,130.18h29a4.37,4.37,0,0,0,0-8.73h-29a4.37,4.37,0,0,0,0,8.73Z" fill="#9dbe7a"></path>
    <path d="M49.42,194.13h29a4.37,4.37,0,0,0,0-8.73h-29a4.37,4.37,0,0,0,0,8.73Z" fill="#9dbe7a"></path>
    <path d="M49.42,162.16h29a4.37,4.37,0,0,0,0-8.73h-29a4.37,4.37,0,0,0,0,8.73Z" fill="#9dbe7a"></path>
    <path d="M171.55,130.18h29a4.37,4.37,0,1,0,0-8.73h-29a4.37,4.37,0,0,0,0,8.73Z" fill="#9dbe7a"></path>
    <path d="M171.55,194.13h29a4.37,4.37,0,1,0,0-8.73h-29a4.37,4.37,0,0,0,0,8.73Z" fill="#9dbe7a"></path>
    <path d="M171.55,162.16h29a4.37,4.37,0,1,0,0-8.73h-29a4.37,4.37,0,0,0,0,8.73Z" fill="#9dbe7a"></path>
    <path d="M139.51,185.4h-29a4.37,4.37,0,1,0,0,8.73h29a4.37,4.37,0,1,0,0-8.73Z" fill="#9dbe7a"></path>
    <path
        d="M155.06,133.33c-2.2-8.64-9.56-14.67-17.9-14.67A17.46,17.46,0,0,0,125,123.79a17.48,17.48,0,0,0-12.17-5.13c-8.33,0-15.69,6-17.89,14.67-1.14,4.49-1.39,11.64,4,20.15,4.72,7.52,12.8,14.44,24,20.56a4.39,4.39,0,0,0,4.18,0c11.22-6.12,19.3-13,24-20.56C156.45,145,156.21,137.82,155.06,133.33ZM125,165.21c-23.56-13.59-22.52-26.13-21.6-29.73,1.2-4.68,5.16-8.09,9.43-8.09,3.29,0,6.2,2,8.43,5.64a4.37,4.37,0,0,0,7.47,0c2.2-3.63,5.2-5.64,8.43-5.64,4.28,0,8.25,3.41,9.44,8.09C147.52,139.08,148.57,151.62,125,165.21Z"
        fill="#9dbe7a"></path>
</svg>